<?xml version="1.0" standalone="no"?>
<!DOCTYPE svg PUBLIC "-//W3C//DTD SVG 20010904//EN"
 "http://www.w3.org/TR/2001/REC-SVG-20010904/DTD/svg10.dtd">
<svg version="1.0" xmlns="http://www.w3.org/2000/svg"
 width="1024.000000pt" height="1024.000000pt" viewBox="0 0 1024.000000 1024.000000"
 preserveAspectRatio="xMidYMid meet">

<g transform="translate(0.000000,1024.000000) scale(0.100000,-0.100000)"
fill="#000000" stroke="none">
<path d="M0 5120 l0 -5120 5120 0 5120 0 0 5120 0 5120 -5120 0 -5120 0 0
-5120z m5210 2496 c82 -35 177 -103 225 -158 20 -24 98 -156 173 -295 l137
-252 163 85 c90 47 165 84 167 82 2 -2 -123 -214 -278 -471 l-282 -466 -440 1
c-242 0 -485 3 -540 7 l-100 6 148 94 147 94 -39 71 c-21 39 -121 222 -221
406 -216 397 -274 485 -395 605 -94 94 -178 150 -280 188 l-60 22 390 6 c215
3 532 5 705 4 l315 0 65 -29z m-1445 -60 c187 -88 349 -259 504 -533 29 -51
51 -96 48 -100 -2 -4 -124 -205 -272 -445 -258 -422 -268 -437 -289 -424 -11
8 -239 143 -506 301 -267 158 -487 288 -488 290 -2 2 120 194 271 427 297 457
304 466 419 509 42 16 71 19 145 16 80 -4 101 -9 168 -41z m-343 -1696 c121
-223 245 -452 275 -509 l56 -105 -99 54 c-54 29 -126 68 -160 86 l-61 34 -208
-340 -208 -340 -107 0 c-328 0 -522 57 -669 196 -126 118 -187 241 -179 361 4
67 39 142 243 530 l95 182 -157 123 -158 123 360 5 c198 3 450 5 559 5 l200 0
218 -405z m2185 205 c449 -99 810 -386 1002 -796 92 -198 120 -319 128 -551 4
-130 2 -189 -11 -270 -23 -134 -84 -318 -146 -437 -28 -51 -50 -95 -50 -97 0
-2 279 -4 620 -4 l620 0 0 -96 0 -96 -57 6 c-72 8 -311 23 -500 32 l-143 7 -2
-664 -3 -664 -90 0 -90 0 -2 659 c-2 362 -5 661 -7 664 -3 2 -112 -1 -243 -8
l-238 -12 -75 -73 c-98 -95 -196 -169 -298 -225 l-83 -45 3 -345 c3 -329 4
-347 25 -392 11 -25 32 -53 45 -61 42 -27 126 -40 222 -34 167 10 243 51 282
154 16 43 19 90 22 466 l3 417 90 0 89 0 0 -585 0 -585 -88 0 -88 0 4 67 5 67
-33 -38 c-114 -129 -440 -157 -604 -52 -61 39 -90 75 -122 155 -23 54 -24 65
-24 374 0 174 -4 317 -8 317 -5 0 -31 -6 -58 -14 -222 -65 -558 -63 -787 5
-94 28 -220 82 -301 129 l-68 40 -582 0 c-751 0 -833 7 -993 85 -133 65 -132
64 -446 645 -156 289 -308 570 -338 625 l-53 99 74 -63 c96 -81 230 -146 347
-170 77 -16 169 -20 714 -26 l626 -7 7 93 c14 188 66 379 148 544 135 272 394
527 662 650 111 52 271 102 378 119 120 20 411 15 515 -9z m2409 -2476 c81
-25 140 -80 167 -154 17 -47 17 -51 1 -60 -87 -50 -86 -143 2 -180 l35 -14 -3
-73 c-3 -72 -3 -72 -35 -80 -40 -10 -63 -42 -63 -88 0 -40 25 -71 73 -89 27
-11 28 -12 25 -83 -3 -64 -6 -73 -23 -76 -11 -2 -32 -16 -47 -30 -53 -49 -25
-144 45 -154 18 -2 22 -10 22 -38 l0 -35 -87 -3 -88 -3 0 408 c0 516 -8 562
-103 603 -93 40 -283 33 -376 -14 -62 -32 -104 -80 -130 -151 -20 -53 -21 -74
-21 -450 l0 -395 -90 0 -90 0 0 585 0 585 85 0 85 0 0 -68 0 -68 53 50 c84 82
186 108 385 100 73 -3 136 -12 178 -25z m225 -250 c47 -25 41 -103 -8 -115
-57 -15 -103 29 -83 80 15 41 54 56 91 35z m201 -166 c24 -22 23 -62 -4 -90
-27 -28 -48 -29 -82 -2 -48 38 -24 109 37 109 17 0 39 -7 49 -17z m-201 -174
c31 -16 42 -55 24 -90 -13 -24 -22 -29 -54 -29 -23 0 -44 6 -51 16 -21 25 -16
75 9 96 26 21 44 23 72 7z m384 -14 c29 -28 31 -51 9 -83 -31 -45 -114 -18
-114 37 0 31 8 44 35 59 30 17 43 15 70 -13z m-185 -155 c42 -42 13 -110 -47
-110 -30 0 -63 34 -63 65 0 32 33 65 65 65 14 0 34 -9 45 -20z m-199 -170 c4
0 15 -13 24 -29 19 -37 6 -76 -30 -93 -52 -24 -106 32 -85 87 10 27 45 47 68
39 8 -2 18 -4 23 -4z m-2039 -432 c3 -60 4 -63 28 -63 24 0 25 3 28 63 3 54 6
62 22 62 18 0 20 -7 20 -63 0 -74 -22 -107 -70 -107 -50 0 -70 30 -70 105 0
58 2 65 20 65 16 0 19 -8 22 -62z m378 47 c0 -8 -9 -15 -20 -15 -11 0 -20 7
-20 15 0 8 9 15 20 15 11 0 20 -7 20 -15z m720 0 c0 -8 -9 -15 -20 -15 -11 0
-20 7 -20 15 0 8 9 15 20 15 11 0 20 -7 20 -15z m180 -65 c0 -44 -3 -80 -7
-81 -5 0 -25 -2 -45 -5 -64 -8 -99 52 -62 105 12 17 24 22 45 19 25 -4 29 -1
29 19 0 16 6 23 20 23 18 0 20 -7 20 -80z m338 -1 l-3 -81 -38 -4 c-27 -2 -43
2 -57 16 -42 42 -10 118 45 108 21 -4 25 -1 25 18 0 15 6 24 15 24 13 0 15
-13 13 -81z m-1348 21 c12 -22 13 -97 2 -104 -16 -10 -31 11 -34 49 -2 27 -8
40 -18 40 -10 0 -16 -13 -18 -40 -3 -38 -18 -59 -34 -49 -9 6 -11 108 -3 116
3 3 26 6 50 6 34 1 47 -3 55 -18z m108 -39 c2 -36 -1 -57 -9 -62 -23 -14 -29
1 -29 62 0 52 2 60 18 57 13 -2 18 -15 20 -57z m97 29 c7 -32 25 -41 25 -12 0
26 16 46 33 39 13 -5 13 -11 -1 -54 -19 -61 -30 -75 -50 -64 -13 7 -52 92 -52
114 0 4 9 7 19 7 13 0 21 -9 26 -30z m218 12 c36 -39 6 -112 -45 -112 -26 0
-58 36 -58 65 0 53 69 85 103 47z m157 1 c0 -8 -9 -17 -20 -20 -19 -5 -24 -16
-32 -66 -7 -42 -23 -17 -26 39 l-3 61 41 0 c28 0 40 -4 40 -14z m134 1 c24
-23 20 -27 -21 -20 l-38 6 35 -18 c19 -9 36 -26 38 -36 8 -39 -61 -62 -92 -30
-22 21 -20 34 4 34 11 0 20 -4 20 -10 0 -5 7 -10 15 -10 25 0 17 14 -17 30
-38 18 -44 32 -23 54 21 20 59 21 79 0z m114 -43 c2 -36 -1 -57 -9 -62 -23
-14 -29 1 -29 62 0 52 2 60 18 57 13 -2 18 -15 20 -57z m328 51 c7 -4 13 -32
15 -62 l4 -54 -40 -2 c-52 -2 -77 11 -73 39 2 15 14 25 36 32 17 5 32 13 32
18 0 5 -7 6 -15 3 -8 -3 -22 -9 -30 -12 -18 -7 -20 17 -3 34 13 13 57 16 74 4z
m-1726 -202 c0 -15 -7 -20 -25 -20 -24 0 -25 -2 -25 -65 0 -58 -2 -65 -20 -65
-18 0 -20 7 -20 65 0 58 -2 65 -20 65 -13 0 -20 7 -20 20 0 18 7 20 65 20 58
0 65 -2 65 -20z m140 10 c0 -5 -7 -13 -16 -18 -13 -7 -12 -11 11 -26 23 -15
26 -23 22 -58 -5 -43 -19 -58 -54 -58 -29 0 -63 33 -63 60 0 12 11 32 24 45
14 13 27 34 31 45 6 20 45 29 45 10z m460 -4 c0 -8 -5 -18 -11 -22 -14 -8 -33
11 -25 25 10 16 36 13 36 -3z m580 -32 l29 -46 3 43 c2 32 8 45 21 47 15 3 17
-6 17 -82 0 -78 -2 -86 -19 -86 -13 0 -30 18 -50 53 l-31 52 0 -53 c0 -45 -3
-53 -17 -50 -15 3 -19 16 -21 72 -2 38 -1 75 2 83 10 26 37 12 66 -33z m510
32 c0 -8 -4 -17 -8 -20 -13 -8 -35 11 -28 23 10 16 36 14 36 -3z m625 -71 c0
-68 -3 -80 -17 -83 -16 -3 -18 6 -18 83 0 77 2 86 18 83 14 -3 17 -15 17 -83z
m-2011 35 c14 -5 26 -16 26 -25 0 -17 -13 -19 -40 -5 -23 12 -44 -11 -35 -40
7 -21 29 -27 40 -10 9 15 35 12 35 -5 0 -17 -30 -35 -59 -35 -50 0 -72 84 -29
114 26 19 29 19 62 6z m177 0 c15 -9 19 -22 19 -66 0 -47 -3 -55 -17 -52 -13
2 -19 15 -21 46 -2 28 -8 42 -17 42 -9 0 -15 -14 -17 -42 -2 -31 -8 -44 -20
-46 -16 -3 -18 5 -18 57 l0 60 33 4 c17 2 33 5 35 5 2 1 12 -3 23 -8z m277 -6
c12 -8 22 -19 22 -25 0 -12 -37 -12 -45 1 -10 16 -35 -1 -35 -25 0 -28 17 -42
33 -26 13 13 47 15 47 3 0 -20 -40 -43 -66 -40 -56 6 -72 97 -21 118 32 13 40
12 65 -6z m163 6 c15 -9 19 -22 19 -64 l0 -53 -43 -1 c-53 -1 -70 9 -65 39 2
16 12 25 36 31 17 5 32 13 32 19 0 7 -7 8 -17 4 -55 -23 -74 -11 -31 19 26 19
42 20 69 6z m480 0 c15 -9 19 -22 19 -64 l0 -53 -43 -1 c-53 -1 -70 9 -65 39
2 16 12 26 36 33 17 5 32 13 32 17 0 12 -17 11 -25 -1 -8 -13 -45 -13 -45 -1
0 13 40 41 58 41 7 0 22 -5 33 -10z m177 -6 c12 -8 22 -19 22 -25 0 -12 -37
-12 -45 1 -10 17 -35 -1 -35 -26 0 -26 31 -47 38 -26 4 12 42 17 42 5 0 -17
-36 -43 -58 -43 -84 0 -81 123 3 129 6 1 21 -6 33 -15z m263 5 c27 -14 38 -48
27 -81 -11 -31 -38 -43 -74 -34 -49 13 -57 92 -12 114 30 14 35 14 59 1z m187
-1 c18 -18 16 -118 -3 -118 -11 0 -15 12 -15 45 0 38 -3 45 -19 45 -16 0 -20
-8 -23 -42 -2 -30 -8 -43 -18 -43 -11 0 -16 14 -18 57 l-3 57 33 4 c18 2 38 5
44 5 5 1 15 -3 22 -10z m173 -9 c15 -15 19 -30 17 -62 l-3 -42 -46 -3 c-31 -1
-51 3 -59 12 -19 24 -8 49 28 58 17 5 32 13 32 18 0 13 -17 13 -25 0 -9 -15
-35 -12 -35 5 0 35 60 45 91 14z m-1601 -50 c0 -52 -2 -60 -17 -57 -14 2 -19
15 -21 61 -3 52 -1 57 18 57 18 0 20 -6 20 -61z m1090 0 c0 -52 -2 -60 -17
-57 -14 2 -19 15 -21 61 -3 52 -1 57 18 57 18 0 20 -6 20 -61z"/>
<path d="M5290 6027 c0 -14 -77 -57 -102 -57 -9 0 -24 -3 -33 -6 -13 -6 -14
-9 -3 -16 18 -12 -16 -38 -51 -39 l-26 0 25 -11 c24 -9 24 -10 5 -18 -24 -9
-135 -1 -135 11 0 4 7 14 15 23 10 10 12 17 4 21 -6 4 -16 2 -22 -4 -14 -14
-44 -14 -53 0 -3 6 -1 15 6 19 20 13 -47 20 -80 9 -25 -9 -29 -15 -24 -33 5
-17 4 -19 -7 -8 -19 17 -46 15 -58 -5 -5 -10 -13 -15 -16 -11 -4 4 -26 -2 -49
-14 -24 -13 -35 -23 -27 -26 7 -2 17 1 21 8 6 10 13 9 30 -3 22 -15 22 -16
-16 -26 -22 -6 -48 -11 -59 -11 -17 0 -17 2 -5 10 22 14 -5 13 -32 -1 -20 -11
-20 -11 3 -33 15 -14 32 -21 46 -18 13 2 29 -1 36 -6 10 -9 18 -6 32 11 l19
22 8 -33 c5 -18 17 -36 26 -40 9 -4 18 -15 18 -24 2 -21 3 -21 -31 -8 -17 7
-39 6 -69 -2 -37 -10 -49 -9 -77 5 l-34 17 28 0 c15 0 27 5 27 11 0 5 -8 9
-17 8 -34 -3 -43 1 -43 21 0 20 -1 20 -25 4 -14 -9 -33 -18 -43 -19 -24 -2
-52 -16 -52 -25 0 -7 48 -15 130 -23 14 -1 24 -8 22 -14 -1 -8 9 -13 27 -13
16 0 36 -7 45 -15 21 -22 29 -18 22 10 -6 22 -3 25 18 25 14 0 28 -4 31 -10 3
-5 27 -10 52 -10 38 0 44 2 34 14 -14 17 1 31 24 22 9 -3 15 3 17 17 5 36 35
32 53 -8 14 -29 20 -33 32 -23 14 12 25 3 36 -26 5 -16 27 4 27 25 0 36 42 14
47 -25 3 -20 -2 -28 -22 -36 -32 -12 -32 -16 5 -35 31 -16 43 -42 14 -31 -9 4
-23 1 -31 -5 -17 -14 -28 -5 -28 24 0 14 -7 23 -20 25 -17 3 -17 1 -5 -7 13
-10 13 -12 0 -21 -8 -5 -19 -10 -25 -10 -16 0 -65 -67 -65 -89 0 -12 7 -21 15
-21 8 0 15 -6 15 -12 1 -16 82 -58 110 -58 15 0 20 -7 20 -28 0 -52 46 -72 55
-24 3 15 9 39 14 53 4 14 4 35 0 46 -13 35 1 102 23 108 26 9 82 -26 86 -54 5
-30 27 -37 56 -18 23 15 24 15 42 -24 10 -24 30 -47 48 -56 28 -15 29 -17 11
-24 -17 -7 -17 -8 7 -8 54 -2 46 -45 -10 -58 -28 -7 -36 -14 -34 -27 3 -14 -1
-17 -14 -12 -16 6 -44 -9 -44 -24 0 -14 46 -28 63 -18 9 5 17 5 17 1 0 -4 -18
-18 -40 -30 -39 -21 -52 -19 -28 5 10 10 5 10 -22 1 -46 -16 -60 -27 -60 -50
0 -11 -7 -19 -15 -19 -8 0 -22 -11 -31 -25 -9 -14 -21 -22 -27 -18 -6 4 -8 -4
-5 -22 5 -23 -2 -36 -34 -71 -38 -41 -39 -44 -29 -81 13 -47 14 -63 2 -63 -5
0 -16 18 -25 40 -15 37 -18 40 -57 40 -28 0 -38 -4 -33 -12 5 -8 -3 -9 -30 -5
-55 9 -83 -8 -90 -54 -6 -40 11 -100 34 -114 19 -12 57 3 63 25 3 12 13 20 27
20 21 0 22 -3 16 -44 l-7 -45 33 -3 c31 -3 33 -5 30 -39 -3 -43 9 -54 66 -63
32 -5 42 -3 42 8 0 7 8 16 18 20 9 3 23 9 31 12 9 4 11 2 7 -5 -10 -16 3 -14
20 4 9 8 21 15 27 15 8 0 8 -3 -1 -9 -18 -11 7 -21 49 -21 21 0 38 -10 60 -34
17 -19 48 -40 72 -48 53 -16 78 -59 53 -87 -23 -25 -20 -37 4 -16 11 10 23 15
28 11 4 -4 -2 -14 -12 -22 -16 -11 -17 -14 -4 -14 8 0 21 7 28 15 11 13 16 13
45 -5 18 -11 42 -20 54 -20 31 0 81 -40 81 -65 0 -11 -11 -36 -23 -55 -14 -20
-27 -58 -30 -87 -7 -63 -31 -113 -55 -113 -30 0 -94 -49 -88 -68 9 -26 -50
-121 -79 -128 -13 -3 -29 -3 -35 1 -9 6 -9 2 0 -15 16 -30 7 -47 -30 -55 -17
-4 -34 -13 -37 -21 -2 -7 -12 -16 -21 -19 -10 -3 -18 -16 -19 -32 0 -15 -8
-32 -17 -39 -19 -13 -21 -41 -4 -46 7 -3 -2 -27 -27 -67 -30 -51 -40 -60 -47
-47 -5 9 -14 16 -19 16 -6 0 -17 6 -25 14 -11 11 -11 16 -1 19 9 4 8 8 -3 16
-13 9 -13 11 2 11 25 0 34 21 15 35 -17 12 -24 41 -8 31 9 -6 21 16 21 40 0 8
-6 11 -15 8 -8 -4 -15 -1 -15 5 0 6 5 11 10 11 6 0 10 17 10 39 0 21 7 55 15
75 8 20 20 91 25 158 l11 123 -44 40 c-33 30 -52 60 -75 117 -17 43 -27 80
-22 83 4 3 6 13 3 24 -2 10 7 40 21 67 20 38 24 56 17 79 -7 27 -12 30 -42 28
-37 -3 -59 10 -77 44 -13 23 -111 73 -146 73 -34 0 -126 58 -126 79 0 10 -12
34 -27 53 -16 20 -39 54 -53 76 -23 39 -40 53 -40 34 0 -5 16 -34 35 -67 20
-32 34 -60 31 -62 -6 -7 -62 70 -76 107 -8 19 -31 53 -51 75 -55 61 -79 112
-79 172 0 35 5 57 16 68 16 15 15 18 -11 43 -16 15 -22 18 -14 8 13 -18 13
-18 -8 -6 -12 8 -20 17 -17 21 2 4 -3 14 -11 22 -8 9 -15 20 -15 26 0 6 -4 11
-10 11 -5 0 -10 9 -10 20 0 12 -16 36 -35 56 -19 19 -35 32 -35 30 0 -3 -19 1
-41 9 -23 8 -45 15 -49 15 -11 0 -100 -140 -140 -220 -49 -97 -107 -284 -124
-402 -29 -194 -15 -404 40 -596 34 -120 140 -330 218 -433 207 -274 509 -460
851 -525 185 -36 466 -21 635 33 l55 18 3 113 3 112 84 0 85 0 0 -75 c0 -41 4
-75 8 -75 33 0 348 238 361 271 2 7 -23 9 -65 7 l-69 -3 0 90 0 90 135 3 c74
1 138 6 143 11 5 5 -1 28 -14 52 -28 56 -61 173 -61 219 -1 19 3 54 7 77 8 46
-4 89 -38 133 -13 18 -18 37 -15 70 3 38 0 45 -17 48 -11 2 -28 11 -38 20 -15
14 -24 14 -63 4 -24 -7 -66 -12 -92 -12 -40 0 -53 5 -75 28 -15 15 -27 31 -27
35 0 4 -12 26 -27 48 -23 35 -26 49 -24 107 2 70 21 111 76 162 14 13 25 33
25 44 1 27 55 90 69 82 6 -4 37 0 68 8 121 31 159 26 151 -20 -2 -12 14 -26
55 -48 l58 -31 17 23 c17 22 19 22 60 8 24 -9 58 -15 77 -14 39 1 43 13 24 66
-9 27 -14 30 -47 27 -20 -1 -32 -1 -25 2 8 3 10 15 6 34 -4 22 -2 29 11 29 10
0 16 8 15 23 -1 16 -2 18 -6 5 -2 -10 -14 -18 -26 -18 -35 0 -53 -16 -39 -33
10 -11 9 -17 -3 -27 -9 -7 -17 -11 -18 -9 -1 2 -14 25 -27 50 -25 45 -96 117
-106 106 -10 -10 25 -63 49 -74 19 -9 24 -17 20 -33 -7 -28 -23 -36 -23 -11 0
12 -4 21 -10 21 -5 0 -27 15 -48 34 -30 28 -43 33 -67 29 -29 -5 -105 -74
-105 -94 0 -6 -16 -17 -35 -25 -31 -13 -38 -13 -60 2 -21 14 -25 24 -25 65 l0
48 53 3 c44 3 52 6 55 24 2 11 -6 28 -18 39 -19 17 -28 41 -12 32 4 -2 21 4
37 14 17 10 40 24 53 30 12 7 22 18 22 26 0 7 14 16 30 20 25 4 30 10 30 34 0
37 18 47 22 12 2 -23 8 -28 33 -29 17 -1 47 2 68 5 36 6 37 7 22 28 -14 20
-17 21 -49 8 l-34 -14 -17 41 c-12 31 -19 38 -28 29 -6 -6 -21 -11 -34 -11
-19 0 -23 5 -23 32 0 38 34 79 59 70 27 -10 -79 97 -166 167 -105 85 -215 151
-251 150 -15 0 -21 -3 -13 -6 11 -5 11 -7 0 -14 -11 -7 -11 -9 2 -9 9 0 19 -7
23 -15 3 -9 0 -15 -9 -15 -10 0 -12 -6 -8 -17 7 -17 5 -17 -20 0 -23 15 -30
16 -45 5 -22 -17 -26 -38 -6 -38 24 0 55 -20 48 -31 -4 -6 -11 -6 -20 2 -11 9
-18 8 -31 -2 -15 -13 -13 -15 18 -20 l34 -6 -28 -11 c-15 -7 -52 -16 -82 -20
-41 -7 -60 -16 -76 -35 -11 -15 -28 -27 -38 -27 -25 0 -62 -43 -70 -82 -6 -29
-11 -33 -36 -31 -30 2 -81 46 -87 73 -2 8 -7 18 -12 21 -4 4 -3 16 3 28 8 13
8 21 2 21 -7 0 -7 9 0 27 8 22 7 30 -6 39 -11 8 -12 14 -5 19 15 9 2 25 -15
18 -10 -3 -15 1 -15 12 0 9 -12 34 -27 55 l-28 38 -71 -5 c-59 -5 -72 -3 -77
11 -5 11 -1 16 13 16 11 0 20 5 20 10 0 6 -17 10 -37 10 -45 0 -34 16 17 25
36 6 60 21 60 37 0 5 -9 6 -20 3 -11 -4 -20 -2 -20 4 0 5 16 14 35 20 19 5 42
16 51 25 14 15 12 16 -25 16 -26 0 -41 -5 -41 -13z m-453 -170 c-3 -7 -11 -10
-18 -8 -8 2 -22 3 -31 3 -9 0 -19 6 -22 15 -5 13 -4 13 8 4 11 -9 15 -8 20 4
5 13 10 14 26 5 12 -6 19 -17 17 -23z m110 8 c13 -14 28 -16 86 -10 56 6 69 5
65 -6 -4 -10 -26 -14 -87 -14 -68 1 -85 4 -92 18 -6 9 -19 17 -29 17 -10 0
-22 5 -26 12 -11 18 63 2 83 -17z m-187 -15 c0 -5 -5 -10 -11 -10 -5 0 -7 5
-4 10 3 6 8 10 11 10 2 0 4 -4 4 -10z m131 -3 c-1 -12 -15 -9 -19 4 -3 6 1 10
8 8 6 -3 11 -8 11 -12z m1084 3 c3 -6 -1 -7 -9 -4 -18 7 -21 14 -7 14 6 0 13
-4 16 -10z m-1056 -56 c-17 -18 -25 -21 -31 -12 -12 20 -10 28 15 37 34 13 41
2 16 -25z m-64 16 c-4 -6 -1 -17 5 -25 17 -21 -13 -31 -47 -16 l-25 12 22 19
c24 21 56 28 45 10z m275 -10 c0 -13 54 -44 74 -42 10 0 15 -2 12 -5 -3 -4 7
-12 24 -19 19 -9 28 -18 24 -27 -4 -10 6 -19 30 -27 45 -14 61 -33 42 -49 -10
-9 -20 -9 -40 0 -35 16 -44 4 -19 -24 12 -12 21 -33 20 -47 -2 -24 -4 -25 -32
-15 -17 5 -44 19 -60 29 -16 10 -42 19 -58 18 -31 -1 -33 21 -2 27 10 1 27 11
37 21 18 16 18 19 3 34 -9 9 -13 16 -8 16 4 1 -6 7 -22 14 -17 7 -66 17 -108
20 -80 8 -105 24 -91 60 8 21 42 30 59 16 9 -7 15 -8 20 0 9 15 35 12 35 -4 0
-19 39 -31 53 -17 8 8 5 11 -10 11 -22 0 -37 13 -27 23 7 7 44 -4 44 -13z
m975 -60 c-3 -5 -12 -10 -18 -10 -7 0 -6 4 3 10 19 12 23 12 15 0z m-955 -70
c0 -5 -4 -10 -10 -10 -5 0 -10 5 -10 10 0 6 5 10 10 10 6 0 10 -4 10 -10z
m755 -40 c-3 -5 -10 -10 -16 -10 -5 0 -9 5 -9 10 0 6 7 10 16 10 8 0 12 -4 9
-10z m105 -5 c10 -13 7 -17 -23 -30 -44 -18 -61 -19 -87 -3 -18 12 -18 13 8
29 34 22 86 24 102 4z m-950 -75 c0 -5 -7 -10 -16 -10 -8 0 -12 5 -9 10 3 6
10 10 16 10 5 0 9 -4 9 -10z m40 -6 c0 -8 -5 -12 -10 -9 -6 4 -8 11 -5 16 9
14 15 11 15 -7z m1020 -9 c0 -8 -4 -15 -10 -15 -5 0 -10 7 -10 15 0 8 5 15 10
15 6 0 10 -7 10 -15z m-855 -25 c3 -5 1 -10 -4 -10 -6 0 -11 5 -11 10 0 6 2
10 4 10 3 0 8 -4 11 -10z m935 0 c0 -5 -4 -10 -10 -10 -5 0 -10 5 -10 10 0 6
5 10 10 10 6 0 10 -4 10 -10z m-35 -40 c-4 -12 -2 -20 5 -20 6 0 8 -5 5 -10
-3 -6 8 -31 25 -57 30 -44 31 -48 14 -60 -10 -7 -34 -13 -53 -13 -31 1 -33 2
-17 11 14 9 15 13 5 19 -10 7 -10 11 1 24 11 14 10 19 -4 34 -21 24 -20 50 1
74 21 23 26 23 18 -2z m-1805 -60 c0 -5 -5 -10 -11 -10 -5 0 -7 5 -4 10 3 6 8
10 11 10 2 0 4 -4 4 -10z m2020 -4 c0 -3 -4 -8 -10 -11 -5 -3 -10 -1 -10 4 0
6 5 11 10 11 6 0 10 -2 10 -4z m-255 -16 c3 -5 -7 -22 -22 -37 l-28 -28 -3 23
c-6 38 36 70 53 42z m-1765 -10 c0 -5 -5 -10 -11 -10 -5 0 -7 5 -4 10 3 6 8
10 11 10 2 0 4 -4 4 -10z m720 -31 c0 -5 -4 -9 -10 -9 -5 0 -10 7 -10 16 0 8
5 12 10 9 6 -3 10 -10 10 -16z m345 -49 c-3 -5 1 -10 9 -10 13 0 36 -28 36
-44 0 -12 -57 -6 -75 8 -19 14 -19 15 -1 35 19 21 42 29 31 11z m915 -180 c0
-5 -4 -10 -10 -10 -5 0 -10 5 -10 10 0 6 5 10 10 10 6 0 10 -4 10 -10z m-60
-4 c0 -2 -7 -6 -15 -10 -8 -3 -15 -1 -15 4 0 6 7 10 15 10 8 0 15 -2 15 -4z
m137 -52 c-9 -9 -28 6 -21 18 4 6 10 6 17 -1 6 -6 8 -13 4 -17z m-17 -34 c-19
-13 -30 -13 -30 0 0 6 10 10 23 10 18 0 19 -2 7 -10z m-420 -50 c0 -5 -4 -10
-10 -10 -5 0 -10 5 -10 10 0 6 5 10 10 10 6 0 10 -4 10 -10z m-2 -69 c11 -6
10 -10 -4 -15 -9 -3 -19 -4 -22 -1 -3 3 1 5 9 5 11 0 11 2 -1 10 -8 5 -10 10
-5 10 6 0 16 -4 23 -9z m37 -1 c3 -5 1 -10 -4 -10 -6 0 -11 5 -11 10 0 6 2 10
4 10 3 0 8 -4 11 -10z m-872 -47 c-7 -3 -13 -9 -13 -14 0 -4 7 -6 15 -3 9 4
15 0 15 -10 0 -9 -5 -16 -11 -16 -12 0 -44 30 -32 30 4 0 2 4 -6 9 -9 6 -4 8
15 8 16 0 23 -2 17 -4z m-23 -53 c40 -20 52 -40 26 -40 -8 0 -31 9 -50 21 -24
14 -36 17 -36 9 0 -10 -3 -10 -15 0 -8 7 -12 16 -9 21 9 15 42 10 84 -11z
m-1110 0 c8 -5 12 -12 9 -15 -8 -8 -39 5 -39 16 0 11 11 11 30 -1z m1195 -9
c-3 -6 -11 -11 -16 -11 -5 0 -4 6 3 14 14 16 24 13 13 -3z m-1155 -33 c0 -5
-4 -8 -10 -8 -5 0 -10 10 -10 23 0 18 2 19 10 7 5 -8 10 -18 10 -22z m1185 -4
c13 -5 14 -8 3 -15 -17 -11 -58 -11 -58 -1 0 21 24 28 55 16z m55 -14 c0 -5
-4 -10 -10 -10 -5 0 -10 5 -10 10 0 6 5 10 10 10 6 0 10 -4 10 -10z m-160 -10
c0 -5 -2 -10 -4 -10 -3 0 -8 5 -11 10 -3 6 -1 10 4 10 6 0 11 -4 11 -10z m766
-40 c0 -11 -4 -20 -8 -20 -4 0 -8 9 -8 20 0 11 4 20 8 20 4 0 8 -9 8 -20z
m-536 -25 c0 -8 -4 -15 -10 -15 -5 0 -7 7 -4 15 4 8 8 15 10 15 2 0 4 -7 4
-15z m30 -9 c0 -3 -4 -8 -10 -11 -5 -3 -10 -1 -10 4 0 6 5 11 10 11 6 0 10 -2
10 -4z m-20 -36 c0 -5 -5 -10 -11 -10 -5 0 -7 5 -4 10 3 6 8 10 11 10 2 0 4
-4 4 -10z m-400 -187 c0 -5 -13 -8 -30 -8 -16 0 -30 3 -30 8 0 4 14 7 30 7 17
0 30 -3 30 -7z m190 -793 c0 -5 -4 -10 -10 -10 -5 0 -10 5 -10 10 0 6 5 10 10
10 6 0 10 -4 10 -10z m230 -78 c0 -9 -6 -12 -16 -8 -9 3 -20 6 -25 6 -6 0 -8
4 -5 8 8 13 46 8 46 -6z m-210 -27 c0 -8 -2 -15 -4 -15 -2 0 -6 7 -10 15 -3 8
-1 15 4 15 6 0 10 -7 10 -15z m80 -10 c17 -20 5 -33 -25 -27 -29 5 -30 7 -12
27 16 18 22 18 37 0z m438 -14 c3 -8 -1 -12 -9 -9 -7 2 -15 10 -17 17 -3 8 1
12 9 9 7 -2 15 -10 17 -17z m-393 -1 c3 -5 1 -10 -4 -10 -6 0 -11 5 -11 10 0
6 2 10 4 10 3 0 8 -4 11 -10z"/>
<path d="M4978 6003 c-30 -8 28 -63 66 -62 l31 0 -37 16 c-45 18 -41 33 9 33
20 0 34 2 32 4 -8 6 -84 13 -101 9z"/>
<path d="M5253 5274 c-25 -22 -25 -24 -3 -10 13 9 32 16 42 16 9 0 20 5 23 10
13 21 -35 9 -62 -16z"/>
<path d="M4966 5262 c-2 -4 11 -15 30 -24 35 -16 35 -16 21 5 -15 24 -42 34
-51 19z"/>
<path d="M4997 5213 c-4 -3 -7 -18 -6 -32 1 -26 1 -25 10 3 9 31 7 41 -4 29z"/>
<path d="M5046 5205 c4 -8 10 -15 15 -15 5 0 9 7 9 15 0 8 -7 15 -15 15 -9 0
-12 -6 -9 -15z"/>
<path d="M7397 2214 c-12 -12 -8 -41 7 -53 17 -14 39 9 34 36 -3 18 -29 29
-41 17z"/>
<path d="M7747 2213 c-12 -12 -7 -51 7 -56 20 -8 39 18 31 43 -6 20 -25 26
-38 13z"/>
<path d="M6835 2210 c-3 -5 3 -10 15 -10 12 0 18 5 15 10 -3 6 -10 10 -15 10
-5 0 -12 -4 -15 -10z"/>
<path d="M6830 2170 c0 -12 26 -19 39 -10 9 5 4 9 -13 12 -14 3 -26 2 -26 -2z"/>
<path d="M7580 2170 c-8 -5 -11 -12 -8 -16 10 -9 38 3 38 16 0 12 -10 13 -30
0z"/>
<path d="M5990 1980 c-12 -8 -10 -10 8 -10 13 0 20 4 17 10 -7 12 -6 12 -25 0z"/>
<path d="M5988 1928 c8 -8 17 -8 34 0 22 10 21 11 -11 11 -27 1 -32 -2 -23
-11z"/>
<path d="M6770 1930 c0 -5 7 -10 15 -10 8 0 15 5 15 10 0 6 -7 10 -15 10 -8 0
-15 -4 -15 -10z"/>
<path d="M7250 1930 c0 -5 7 -10 15 -10 8 0 15 5 15 10 0 6 -7 10 -15 10 -8 0
-15 -4 -15 -10z"/>
<path d="M7702 1981 c-19 -11 -11 -55 10 -59 22 -4 35 36 17 54 -9 8 -19 10
-27 5z"/>
<path d="M8040 1930 c0 -5 7 -10 15 -10 8 0 15 5 15 10 0 6 -7 10 -15 10 -8 0
-15 -4 -15 -10z"/>
</g>
</svg>
